#!OML:ASF E:\Steps\Project 1\Capture day 1\Session 2\Subject.ASF
:FULLY-SPECIFIED
:DEGREES
591
root 4.27126 17.9338 16.4495 -155.351 -2.87087 175.259
lowerback -27.245 -2.58195 -8.06535
upperback -0.0491038 -1.20933 -0.361954
thorax 14.6166 -1.2705 3.51218
lowerneck 0.865163 0.181737 -0.63078
upperneck 25.3935 -3.2274 2.34476
head 7.71281 -2.47168 0.539144
rclavicle 4.47266e-016 1.58531e-014
rhumerus -46.3207 -17.5286 -75.26
rradius 31.0425
rwrist -2.55831
rhand -9.0611 -57.4456
rfingers 7.12502
rthumb 16.8876 633.269
lclavicle 4.47266e-016 1.58531e-014
lhumerus -32.8328 0.784917 81.9398
lradius 26.4458
lwrist -1.77516
lhand -22.8812 -13.6777
lfingers 7.12502
lthumb 3.55778 16.2724
rfemur -24.2284 7.52944 17.8108
rtibia 13.8304
rfoot -20.8677 -2.42394
rtoes -16.977
lfemur -22.2968 -9.3121 -23.4673
ltibia 7.71382
lfoot -6.11586 -4.30525
ltoes -26.7702
592
root 4.27132 17.9325 16.4337 -155.309 -2.84618 175.245
lowerback -27.4199 -2.5701 -8.10524
upperback -0.0649627 -1.17117 -0.369542
thorax 14.6767 -1.2604 3.5351
lowerneck 0.77059 0.158843 -0.729327
upperneck 25.4532 -3.27616 2.43111
head 7.75294 -2.49574 0.579555
rclavicle 9.46712e-015 -7.45443e-015
rhumerus -46.2417 -17.9526 -74.9921
rradius 30.856
rwrist -2.1134
rhand -8.92369 -57.7247
rfingers 7.12502
rthumb 17.0199 633.001
lclavicle 9.46712e-015 -7.45443e-015
lhumerus -32.8237 0.633374 82.094
lradius 26.4791
lwrist -1.71473
lhand -22.2958 -13.6673
lfingers 7.12502
lthumb 4.12317 16.2725
rfemur -24.1475 7.3911 17.8293
rtibia 13.7108
rfoot -20.8433 -2.36169
rtoes -17.5181
lfemur -22.204 -8.9736 -23.5741
ltibia 7.56829
lfoot -6.08988 -4.549
ltoes -28.5131
593
root 4.27209 17.9328 16.4193 -155.33 -2.8564 175.254
lowerback -27.4865 -2.56621 -8.13637
upperback -0.0793418 -1.1573 -0.338744
thorax 14.691 -1.25857 3.58922
lowerneck 0.769384 0.151297 -0.83136
upperneck 25.3846 -3.2481 2.39433
head 7.72964 -2.4889 0.587999
rclavicle 8.44835e-016 -2.22639e-014
rhumerus -46.1484 -18.2043 -74.7888
rradius 30.7832
rwrist -1.85082
rhand -9.0496 -57.8932
rfingers 7.12502
rthumb 16.8987 632.822
lclavicle 8.44835e-016 -2.22639e-014
lhumerus -32.7067 0.641709 82.2484
lradius 26.2915
lwrist -1.73244
lhand -21.9715 -13.7794
lfingers 7.12502
lthumb 4.43633 16.1542
rfemur -24.012 7.45758 17.8276
rtibia 13.5628
rfoot -20.86 -2.34755
rtoes -17.0924
lfemur -22.1073 -8.80846 -23.6055
ltibia 7.52718
lfoot -6.155 -4.68076
ltoes -29.74
594
root 4.27204 17.9329 16.4059 -155.369 -2.92432 175.283
lowerback -27.4991 -2.56004 -8.10775
upperback -0.115312 -1.16571 -0.315037
thorax 14.6565 -1.2604 3.59607
lowerneck 0.755339 0.178785 -0.908604
upperneck 25.387 -3.19597 2.3872
head 7.73236 -2.47021 0.602159
rclavicle 1.5294e-014 1.37161e-014
rhumerus -46.0796 -18.2785 -74.7094
rradius 30.7489
rwrist -1.86296
rhand -9.05719 -57.5294
rfingers 7.12502
rthumb 16.8914 633.185
lclavicle 1.5294e-014 1.37161e-014
lhumerus -32.5215 0.906607 82.294
lradius 25.8782
lwrist -2.03809
lhand -21.9049 -13.8495
lfingers 7.12502
lthumb 4.50058 16.0827
rfemur -23.8154 7.50958 17.8751
rtibia 13.3836
rfoot -20.8536 -2.34036
rtoes -16.603
lfemur -22.0501 -9.0139 -23.5062
ltibia 7.58691
lfoot -6.22888 -4.57405
ltoes -27.9302
595
root 4.2717 17.932 16.393 -155.371 -3.02781 175.283
lowerback -27.5231 -2.58783 -8.09182
upperback -0.170595 -1.21649 -0.303309
thorax 14.6094 -1.28206 3.57974
lowerneck 0.759631 0.218498 -0.885162
upperneck 25.3641 -3.11207 2.30393
head 7.7206 -2.43312 0.576456
rclavicle -3.18055e-015 -2.23633e-015
rhumerus -46.014 -18.3292 -74.6748
rradius 30.721
rwrist -1.80734
rhand -8.7111 -57.0362
rfingers 7.12502
rthumb 17.2245 633.707
lclavicle -3.18055e-015 -2.23633e-015
lhumerus -32.5383 0.887166 82.4239
lradius 25.7597
lwrist -2.27803
lhand -22.1717 -13.6349
lfingers 7.12502
lthumb 4.24295 16.3026
rfemur -23.6488 7.47984 17.919
rtibia 13.2361
rfoot -20.8278 -2.39534
rtoes -16.7415
lfemur -22.0063 -9.28434 -23.4585
ltibia 7.62999
lfoot -6.37689 -4.35211
ltoes -28.4812
596
root 4.27165 17.9322 16.3808 -155.324 -3.07773 175.246
lowerback -27.6243 -2.61308 -8.13261
upperback -0.212143 -1.23767 -0.301494
thorax 14.6114 -1.29666 3.59239
lowerneck 0.640516 0.213172 -0.824353
upperneck 25.4828 -3.10195 2.15715
head 7.7788 -2.4357 0.515139
rclavicle 2.30466e-015 -6.80837e-015
rhumerus -45.905 -18.3423 -74.6692
rradius 30.6819
rwrist -1.73
rhand -8.55297 -56.7938
rfingers 7.12502
rthumb 17.3767 633.963
lclavicle 2.30466e-015 -6.80837e-015
lhumerus -32.64 0.530688 82.6519
lradius 25.8741
lwrist -2.07334
lhand -22.4256 -13.6782
lfingers 7.12502
lthumb 3.99782 16.2641
rfemur -23.5982 7.40684 17.9022
rtibia 13.1534
rfoot -20.8198 -2.40355
rtoes -16.843
lfemur -22.0039 -9.28623 -23.514
ltibia 7.6459
lfoot -6.4603 -4.33356
ltoes -30.3062
597
root 4.27152 17.931 16.3669 -155.22 -3.07279 175.227
lowerback -27.8585 -2.5985 -8.17103
upperback -0.238961 -1.19392 -0.312806
thorax 14.685 -1.28533 3.61087
lowerneck 0.456151 0.167771 -0.771513
upperneck 25.7229 -3.18985 2.08148
head 7.89303 -2.48471 0.469404
rclavicle 5.72127e-015 -1.93318e-014
rhumerus -45.7799 -18.3444 -74.6933
rradius 30.638
rwrist -1.86251
rhand -8.54879 -56.6299
rfingers 7.12502
rthumb 17.3807 634.127
lclavicle 5.72127e-015 -1.93318e-014
lhumerus -32.6219 0.328802 82.804
lradius 25.9023
lwrist -1.82122
lhand -22.1825 -13.7628
lfingers 7.12502
lthumb 4.23253 16.1749
rfemur -23.6421 7.36698 17.8836
rtibia 13.1203
rfoot -20.8403 -2.386
rtoes -16.589
lfemur -22.0275 -9.38261 -23.4836
ltibia 7.53203
lfoot -6.34477 -4.30248
ltoes -28.6088
598
root 4.26896 17.9287 16.3506 -155.134 -3.11746 175.24
lowerback -28.1495 -2.59354 -8.14215
upperback -0.225206 -1.17365 -0.315717
thorax 14.8355 -1.28179 3.59205
lowerneck 0.324551 0.113978 -0.765217
upperneck 25.8138 -3.27816 2.10119
head 7.94933 -2.5234 0.466125
rclavicle 9.2994e-015 1.27719e-014
rhumerus -45.6146 -18.2893 -74.8015
rradius 30.6988
rwrist -2.11767
rhand -8.55897 -56.7401
rfingers 7.12502
rthumb 17.3709 634.016
lclavicle 9.2994e-015 1.27719e-014
lhumerus -32.5426 0.240386 82.9328
lradius 25.8702
lwrist -1.77319
lhand -21.942 -13.6812
lfingers 7.12502
lthumb 4.46473 16.2517
rfemur -23.612 7.32401 17.9064
rtibia 13.0176
rfoot -20.8705 -2.39993
rtoes -16.7906
lfemur -22.0367 -9.47095 -23.4433
ltibia 7.44896
lfoot -6.24272 -4.35746
ltoes -27.1994
599
root 4.26393 17.9241 16.3278 -155.155 -3.19621 175.209
lowerback -28.3921 -2.62103 -8.11123
upperback -0.181833 -1.19438 -0.322872
thorax 15.0029 -1.29539 3.55285
lowerneck 0.319364 0.0815354 -0.812205
upperneck 25.683 -3.30141 2.16718
head 7.90764 -2.52465 0.496816
rclavicle -1.77664e-015 -1.04362e-014
rhumerus -45.4863 -18.1435 -74.9465
rradius 30.8266
rwrist -2.27256
rhand -8.8182 -57.4547
rfingers 7.12502
rthumb 17.1214 633.28
lclavicle -1.77664e-015 -1.04362e-014
lhumerus -32.4707 0.29247 82.9938
lradius 25.7017
lwrist -1.99217
lhand -22.0165 -13.7835
lfingers 7.12502
lthumb 4.3928 16.1509
rfemur -23.3315 7.11544 17.9274
rtibia 12.7456
rfoot -20.8096 -2.21182
rtoes -16.2844
lfemur -21.887 -9.40848 -23.5597
ltibia 7.43514
lfoot -6.2834 -4.59994
ltoes -27.4416
600
root 4.26231 17.92 16.3071 -155.228 -3.23872 175.116
lowerback -28.4885 -2.64821 -8.16516
upperback -0.16028 -1.19794 -0.362267
thorax 15.0728 -1.30292 3.53437
lowerneck 0.389597 0.0735348 -0.738243
upperneck 25.4804 -3.24536 2.05958
head 7.82273 -2.48977 0.456608
rclavicle -3.62782e-015 3.52843e-015
rhumerus -45.3909 -18.1011 -75.041
rradius 30.8368
rwrist -2.28398
rhand -9.09558 -57.8813
rfingers 7.12502
rthumb 16.8544 632.83
lclavicle -3.62782e-015 3.52843e-015
lhumerus -32.3279 0.500953 82.9496
lradius 25.3427
lwrist -2.41944
lhand -22.0745 -14.0692
lfingers 7.12502
lthumb 4.33685 15.8664
rfemur -22.99 6.89116 17.8836
rtibia 12.4515
rfoot -20.708 -1.96594
rtoes -15.1353
lfemur -21.6519 -9.3915 -23.7224
ltibia 7.34823
lfoot -6.26343 -4.74189
ltoes -26.7755
601
root 4.26628 17.9271 16.3068 -155.304 -3.25601 175.1
lowerback -28.2907 -2.63814 -8.20852
upperback -0.187357 -1.1862 -0.390003
thorax 14.9457 -1.29478 3.5372
lowerneck 0.357201 0.0736635 -0.657433
upperneck 25.3773 -3.19212 1.95899
head 7.79009 -2.45564 0.414692
rclavicle 9.31803e-015 -6.21202e-015
rhumerus -45.2373 -18.1231 -75.165
rradius 30.8123
rwrist -2.30959
rhand -9.20421 -57.3428
rfingers 7.12502
rthumb 16.7499 633.36
lclavicle 9.31803e-015 -6.21202e-015
lhumerus -32.1131 0.545347 82.9301
lradius 24.978
lwrist -2.63282
lhand -22.107 -14.1899
lfingers 7.12502
lthumb 4.30543 15.7463
rfemur -22.9336 7.03483 17.8492
rtibia 12.4816
rfoot -20.7075 -2.15241
rtoes -15.3309
lfemur -21.6041 -9.4032 -23.6729
ltibia 7.36954
lfoot -6.17943 -4.70008
ltoes -26.2455
602
root 4.26132 17.9188 16.2855 -155.272 -3.29309 174.966
lowerback -28.521 -2.69155 -8.31396
upperback -0.172461 -1.20106 -0.416749
thorax 15.0725 -1.31508 3.55187
lowerneck 0.340796 0.0544902 -0.640901
upperneck 25.306 -3.18846 1.91486
head 7.76787 -2.45036 0.398674
rclavicle 9.39258e-015 2.11209e-014
rhumerus -45.1181 -17.9434 -75.3059
rradius 30.9177
rwrist -2.54904
rhand -9.20361 -57.1076
rfingers 7.12502
rthumb 16.7504 633.595
lclavicle 9.39258e-015 2.11209e-014
lhumerus -31.9642 0.642235 82.9512
lradius 24.6495
lwrist -2.82753
lhand -22.139 -14.1508
lfingers 7.12502
lthumb 4.27457 15.7861
rfemur -22.9249 6.89808 17.7416
rtibia 12.6502
rfoot -20.8972 -2.16788
rtoes -15.9189
lfemur -21.4037 -9.36933 -23.9199
ltibia 7.16821
lfoot -6.12542 -4.86914
ltoes -26.1075
603
root 4.26433 17.9261 16.2896 -155.226 -3.22078 175.179
lowerback -28.4191 -2.63892 -8.22148
upperback -0.287726 -1.20195 -0.30651
thorax 14.8923 -1.30681 3.62563
lowerneck 0.360717 -0.0359572 -0.620341
upperneck 25.1594 -3.26089 1.80842
head 7.71403 -2.48398 0.358107
rclavicle 6.65307e-015 7.00716e-015
rhumerus -45.0552 -17.6829 -75.3978
rradius 31.0558
rwrist -2.78863
rhand -8.99804 -57.3549
rfingers 7.12502
rthumb 16.9483 633.365
lclavicle 6.65307e-015 7.00716e-015
lhumerus -31.93 0.800447 83.0399
lradius 24.4707
lwrist -3.3362
lhand -21.9746 -13.8719
lfingers 7.12502
lthumb 4.4333 16.0617
rfemur -22.7118 6.89096 17.9334
rtibia 11.9523
rfoot -20.4679 -1.95551
rtoes -15.5293
lfemur -21.5524 -9.18602 -23.6107
ltibia 7.2227
lfoot -6.22716 -4.78124
ltoes -27.8509
604
root 4.26276 17.9248 16.2803 -155.143 -3.20071 175.248
lowerback -28.6052 -2.63851 -8.1936
upperback -0.303462 -1.20791 -0.241347
thorax 14.9637 -1.31361 3.67473
lowerneck 0.105582 -0.0371752 -0.692243
upperneck 25.2711 -3.23146 1.73297
head 7.79583 -2.47579 0.342929
rclavicle -3.97569e-016 9.14409e-015
rhumerus -44.855 -17.6412 -75.4091
rradius 31.0107
rwrist -2.72252
rhand -8.82665 -56.9178
rfingers 7.12502
rthumb 17.1133 633.816
lclavicle -3.97569e-016 9.14409e-015
lhumerus -31.9071 0.751852 83.1964
lradius 24.5396
lwrist -3.78936
lhand -21.2883 -13.2551
lfingers 7.12502
lthumb 5.09595 16.6636
rfemur -22.3475 6.34947 18.0593
rtibia 11.0443
rfoot -19.9645 -1.30525
rtoes -15.3173
lfemur -21.6074 -8.93557 -23.5826
ltibia 7.21998
lfoot -6.15461 -5.00623
ltoes -28.1938
